<svg height="512pt" viewBox="0 0 512 512" width="512pt" xmlns="http://www.w3.org/2000/svg"><path d="M499.898 211.281l-57.32-11.289a193.52 193.52 0 0 0-15.082-36.308l31.902-47.856a15.002 15.002 0 0 0-1.875-18.93l-42.421-42.421a14.997 14.997 0 0 0-18.93-1.875l-47.856 31.902a193.52 193.52 0 0 0-36.308-15.082l-11.29-57.32A15.003 15.003 0 0 0 286 0h-60a15.003 15.003 0 0 0-14.719 12.102l-11.289 57.32a193.52 193.52 0 0 0-36.308 15.082l-47.856-31.902a15.002 15.002 0 0 0-18.93 1.875L54.477 96.898a15.002 15.002 0 0 0-1.875 18.93l31.902 47.856a193.795 193.795 0 0 0-15.086 36.308l-57.32 11.29A15.003 15.003 0 0 0 0 226v60c0 7.168 5.07 13.332 12.102 14.719l57.32 11.289a193.52 193.52 0 0 0 15.082 36.308l-31.902 47.856a15.007 15.007 0 0 0 1.875 18.93l42.421 42.421a15.002 15.002 0 0 0 18.93 1.875l47.856-31.902a193.52 193.52 0 0 0 36.308 15.082l11.29 57.32A15.003 15.003 0 0 0 226 512h60c7.168 0 13.332-5.07 14.719-12.102l11.289-57.32a193.52 193.52 0 0 0 36.308-15.082l47.856 31.902a15.007 15.007 0 0 0 18.93-1.875l42.421-42.425a14.997 14.997 0 0 0 1.875-18.926l-31.902-47.856a193.52 193.52 0 0 0 15.082-36.308l57.32-11.29A15.003 15.003 0 0 0 512 286v-60c0-7.168-5.07-13.332-12.102-14.719zM482 273.668l-54.332 10.703a14.993 14.993 0 0 0-11.66 11.117 163.803 163.803 0 0 1-18.965 45.657 14.996 14.996 0 0 0 .348 16.097l30.226 45.34-25.035 25.035-45.344-30.226a14.989 14.989 0 0 0-16.093-.344 163.773 163.773 0 0 1-45.657 18.96 15.008 15.008 0 0 0-11.12 11.665L273.667 482h-35.332l-10.703-54.328a15.008 15.008 0 0 0-11.121-11.664 163.783 163.783 0 0 1-45.657-18.965 15.004 15.004 0 0 0-16.097.348l-45.34 30.226-25.035-25.035 30.226-45.34a15.004 15.004 0 0 0 .348-16.097 163.851 163.851 0 0 1-18.965-45.657 14.998 14.998 0 0 0-11.664-11.117L30 273.668v-35.332l54.328-10.703a15.008 15.008 0 0 0 11.664-11.121 163.9 163.9 0 0 1 18.965-45.657 15.004 15.004 0 0 0-.348-16.097l-30.226-45.34 25.035-25.035 45.34 30.226a15.004 15.004 0 0 0 16.097.348 163.9 163.9 0 0 1 45.657-18.965 15.008 15.008 0 0 0 11.12-11.664L238.333 30h35.332l10.703 54.328a15.008 15.008 0 0 0 11.121 11.664 163.783 163.783 0 0 1 45.657 18.965 15.004 15.004 0 0 0 16.097-.348l45.34-30.226 25.035 25.035-30.226 45.34a15.004 15.004 0 0 0-.348 16.097 163.735 163.735 0 0 1 18.965 45.657 14.992 14.992 0 0 0 11.664 11.117L482 238.332zm0 0"/><path d="M256 121c-74.438 0-135 60.563-135 135s60.563 135 135 135 135-60.563 135-135-60.563-135-135-135zm0 240c-57.898 0-105-47.102-105-105s47.102-105 105-105 105 47.102 105 105-47.102 105-105 105zm0 0"/><path d="M256 181c-41.355 0-75 33.645-75 75s33.645 75 75 75 75-33.645 75-75-33.645-75-75-75zm0 120c-24.813 0-45-20.188-45-45s20.188-45 45-45 45 20.188 45 45-20.188 45-45 45zm0 0"/></svg>