<svg height="512pt" viewBox="0 0 512 512" width="512pt" xmlns="http://www.w3.org/2000/svg"><path d="M361.145 271c-8.29 0-15.145 6.855-15.145 15.145 0 8.293 6.855 15.148 15.145 15.148 8.293 0 15.148-6.855 15.148-15.148 0-8.29-6.855-15.145-15.148-15.145zm0 0"/><path d="M467 271h-7.832c-4.816-17.078-12.23-32.988-22.145-47.52l40.43-47.792c5.035-5.958 4.668-14.778-.848-20.293a73.844 73.844 0 0 0-85.265-13.883l-11.258 5.613c-3.422-1.785-6.922-3.465-10.457-5.082C373.75 130.797 376 118.656 376 106 376 47.934 328.883 0 271 0c-57.836 0-105 47.883-105 106 0 12.648 2.25 24.781 6.367 36.02-67.289 30.656-110.254 90.449-111.34 156.421C43.18 292.207 30 275.293 30 256c0-8.285-6.715-15-15-15s-15 6.715-15 15c0 37.453 28.129 68.23 63.742 73.996 8.078 42.684 33.7 82.066 72.16 109.832.016 7.258.036 17.465.051 27.246C135.996 491.848 156.18 512 180.95 512h.992c21.414 0 39.309-15.355 43.25-35.637C238.727 480.016 254.516 482 271 482c16.488 0 32.277-1.984 45.813-5.64 3.87 20.109 21.601 35.64 43.261 35.64h.961c24.781 0 44.969-20.16 45-44.938.012-8.437.024-16.925.04-22.867 16.933-14.16 31.476-32.605 41.917-53.148A4013.15 4013.15 0 0 1 467 391c24.813 0 45-20.188 45-45v-30c0-24.813-20.188-45-45-45zM271 30c41.355 0 75 34.094 75 76 0 41.355-33.645 75-75 75s-75-33.645-75-75c0-41.906 33.645-76 75-76zm211 316c0 8.27-6.73 15-15 15-4.18 0-25.223.008-29.195.18a15.002 15.002 0 0 0-13.098 8.965c-9.586 21.875-24.727 41.34-42.629 54.808a15.005 15.005 0 0 0-5.984 11.906c-.02 3.508-.04 16.903-.059 30.164-.012 8.258-6.738 14.977-15 14.977h-.96c-7.778 0-14.067-6.297-14.063-14.074.004-6.262.011-11.23.015-12.89.04-11.333-12.066-18.61-22.054-13.282C311.933 448.168 292.133 452 271 452c-21.117 0-40.91-3.828-52.95-10.238-9.956-5.301-22.05 1.918-22.05 13.242v12.933c0 7.754-6.305 14.063-14.059 14.063h-.992c-8.254 0-14.98-6.719-14.996-14.973-.023-14.316-.055-29.53-.074-35.136a15.003 15.003 0 0 0-6.723-12.446C116.48 391.191 91 346.915 91 301c0-55.648 37.172-106.598 95.668-132.516A105.796 105.796 0 0 0 197.598 181H196c-8.285 0-15 6.715-15 15s6.715 15 15 15h150c8.285 0 15-6.715 15-15s-6.715-15-15-15h-1.598a105.796 105.796 0 0 0 10.93-12.516 189.962 189.962 0 0 1 17.02 8.586 14.998 14.998 0 0 0 14.12.39l18.255-9.105a43.893 43.893 0 0 1 39.511.145l-37.773 44.66a15 15 0 0 0-.27 19.05c13.25 16.587 22.164 35.696 26.496 56.806A15.004 15.004 0 0 0 447.387 301H467c8.27 0 15 6.727 15 15zm0 0"/><path d="M271 151c24.813 0 45-20.188 45-45s-20.188-45-45-45-45 20.188-45 45 20.188 45 45 45zm0-60c8.27 0 15 6.73 15 15s-6.73 15-15 15-15-6.73-15-15 6.73-15 15-15zm0 0"/></svg>