<svg height="512pt" viewBox="0 -46 512 512" width="512pt" xmlns="http://www.w3.org/2000/svg"><path d="M512 195c0-24.813-20.188-45-45-45h-76V75c0-41.355-33.645-75-75-75-8.285 0-15 6.715-15 15v9.367c0 37.61-13.703 73.863-38.594 102.086C249.215 141.418 229.656 150 208.754 150H15c-8.285 0-15 6.715-15 15v210c0 8.285 6.715 15 15 15h169.484c16.239 0 32.41 2.2 48.063 6.54l52.48 14.546A245.174 245.174 0 0 0 350.551 420H407c24.813 0 45-20.188 45-45a44.78 44.78 0 0 0-3.18-16.586C467.914 353.211 482 335.723 482 315a44.73 44.73 0 0 0-3.164-16.578C497.926 293.21 512 275.719 512 255c0-11.516-4.348-22.031-11.484-30 7.136-7.969 11.484-18.484 11.484-30zM30 360V180h121v180H30zm377-120h60c8.27 0 15 6.73 15 15s-6.73 15-15 15h-60c-8.285 0-15 6.715-15 15s6.715 15 15 15h30c8.27 0 15 6.73 15 15s-6.73 15-15 15h-30c-8.285 0-15 6.715-15 15s6.715 15 15 15c8.27 0 15 6.73 15 15s-6.73 15-15 15h-56.45a215.282 215.282 0 0 1-57.507-7.824l-52.484-14.547A209.884 209.884 0 0 0 184.484 360H181V179.8h27.754c29.512 0 57.27-12.085 76.156-33.503a184.248 184.248 0 0 0 45.91-113.79C348.375 38.649 361 55.38 361 75v75h-15c-8.285 0-15 6.715-15 15s6.715 15 15 15h121c8.27 0 15 6.73 15 15s-6.73 15-15 15h-60c-8.285 0-15 6.715-15 15s6.715 15 15 15zm0 0"/><path d="M121 315c0 8.285-6.715 15-15 15s-15-6.715-15-15 6.715-15 15-15 15 6.715 15 15zm0 0"/></svg>