<svg xmlns="http://www.w3.org/2000/svg" width="512" height="512"><path d="M295 127.99H166.894c-5.522 0-10 4.477-10 10s4.477 10 10 10H295c5.522 0 10-4.477 10-10s-4.478-10-10-10zm-208.39 2.927a10.035 10.035 0 0 0-7.06-2.93c-2.64 0-5.22 1.07-7.08 2.93a10.093 10.093 0 0 0-2.93 7.07c0 2.64 1.069 5.21 2.93 7.07 1.86 1.87 4.44 2.93 7.08 2.93 2.63 0 5.21-1.06 7.06-2.93 1.87-1.85 2.931-4.43 2.931-7.07 0-2.63-1.061-5.21-2.931-7.07zm-29.591 0a10.072 10.072 0 0 0-7.069-2.93c-2.631 0-5.21 1.07-7.07 2.93-1.86 1.87-2.93 4.44-2.93 7.07s1.069 5.21 2.93 7.07a10.031 10.031 0 0 0 7.07 2.93c2.63 0 5.21-1.06 7.069-2.93a10.059 10.059 0 0 0 2.931-7.07c0-2.63-1.07-5.21-2.931-7.07zm59.191 0c-1.86-1.86-4.44-2.93-7.07-2.93s-5.21 1.07-7.07 2.93a10.08 10.08 0 0 0-2.93 7.07c0 2.64 1.07 5.21 2.93 7.07 1.86 1.87 4.44 2.93 7.07 2.93s5.21-1.06 7.07-2.93a10.062 10.062 0 0 0 2.93-7.07c0-2.63-1.07-5.2-2.93-7.07zm70.359 84c-1.859-1.86-4.439-2.93-7.069-2.93s-5.21 1.07-7.07 2.93-2.93 4.44-2.93 7.07c0 2.64 1.069 5.21 2.93 7.08 1.86 1.86 4.44 2.92 7.07 2.92s5.21-1.06 7.069-2.92c1.86-1.87 2.931-4.45 2.931-7.08s-1.07-5.2-2.931-7.07z" fill="#f36c00"/><path d="M298 211.99h-84.001c-5.522 0-10 4.477-10 10s4.478 10 10 10H288v76H60v-76h82c5.522 0 10-4.477 10-10s-4.478-10-10-10H50c-5.522 0-10 4.477-10 10v96c0 5.523 4.478 10 10 10h248c5.522 0 10-4.477 10-10v-96c0-5.522-4.478-10-10-10zM459 36.01H330.894c-5.522 0-10 4.477-10 10s4.478 10 10 10H459c5.522 0 10-4.478 10-10 0-5.523-4.478-10-10-10zm-208.391 2.927c-1.859-1.861-4.439-2.93-7.069-2.93s-5.2 1.07-7.07 2.93a10.066 10.066 0 0 0-2.92 7.07c0 2.64 1.06 5.21 2.92 7.07 1.86 1.87 4.44 2.93 7.07 2.93 2.64 0 5.21-1.06 7.069-2.93 1.87-1.86 2.94-4.44 2.94-7.07s-1.07-5.21-2.94-7.07zm-29.59 0a10.067 10.067 0 0 0-7.069-2.93c-2.631 0-5.21 1.07-7.07 2.93s-2.93 4.44-2.93 7.07c0 2.64 1.069 5.21 2.93 7.07a10.031 10.031 0 0 0 7.07 2.93c2.63 0 5.21-1.06 7.069-2.93a10.059 10.059 0 0 0 2.931-7.07c0-2.63-1.07-5.21-2.931-7.07zm59.191 0c-1.86-1.861-4.44-2.93-7.07-2.93s-5.21 1.07-7.07 2.93a10.08 10.08 0 0 0-2.93 7.07 10.1 10.1 0 0 0 2.93 7.08c1.86 1.86 4.44 2.92 7.07 2.92s5.21-1.06 7.07-2.92c1.859-1.87 2.93-4.45 2.93-7.08s-1.07-5.2-2.93-7.07z" fill="#f36c00"/><path d="M470 .01H206c-23.159 0-42 18.841-42 42v49.98H42c-23.159 0-42 18.841-42 42v336c0 23.159 18.841 42 42 42h264c23.159 0 42-18.841 42-42v-49.98h122c23.159 0 42-18.841 42-42v-336c0-23.159-18.841-42-42-42zM328 469.99c0 12.131-9.869 22-22 22H42c-12.131 0-22-9.869-22-22v-286h308v286zm0-306H20v-30c0-12.13 9.869-22 22-22h264c12.131 0 22 9.869 22 22v30zm164-91.98H351c-5.522 0-10 4.477-10 10s4.478 10 10 10h141v286c0 12.13-9.869 22-22 22H348v-164h114c5.522 0 10-4.477 10-10v-96c0-5.523-4.478-10-10-10H345.598c-5.774-16.305-21.34-28.02-39.598-28.02H184V42.01c0-12.131 9.869-22 22-22h264c12.131 0 22 9.869 22 22v30zm-141.905 144v-76H452v76H350.095z" fill="#f36c00"/><path d="M98 355.99H50c-5.522 0-10 4.477-10 10v48c0 5.523 4.478 10 10 10h48c5.522 0 10-4.477 10-10v-48c0-5.522-4.478-10-10-10zm-10 48H60v-28h28v28zm110-48h-48c-5.522 0-10 4.477-10 10v48c0 5.523 4.478 10 10 10h48c5.522 0 10-4.477 10-10v-48c0-5.522-4.478-10-10-10zm-10 48h-28v-28h28v28zm110-48h-48c-5.522 0-10 4.477-10 10v48c0 5.523 4.478 10 10 10h48c5.522 0 10-4.477 10-10v-48c0-5.522-4.478-10-10-10zm-10 48h-28v-28h28v28zM98 443.987H50c-5.522 0-10 4.477-10 10s4.478 10 10 10h48c5.522 0 10-4.477 10-10s-4.478-10-10-10zm100 0h-48c-5.522 0-10 4.477-10 10s4.478 10 10 10h48c5.522 0 10-4.477 10-10s-4.478-10-10-10zm100 0h-48c-5.522 0-10 4.477-10 10s4.478 10 10 10h48c5.522 0 10-4.477 10-10s-4.478-10-10-10zM462 312.01h-78c-5.522 0-10 4.477-10 10s4.478 10 10 10h78c5.522 0 10-4.477 10-10s-4.478-10-10-10zm-39.002-48H384c-5.522 0-10 4.477-10 10s4.478 10 10 10h38.998c5.522 0 10-4.477 10-10s-4.478-10-10-10zm46.071 2.927c-1.859-1.861-4.439-2.93-7.069-2.93s-5.21 1.07-7.07 2.93a10.076 10.076 0 0 0-2.93 7.07c0 2.64 1.069 5.22 2.93 7.07 1.86 1.87 4.44 2.93 7.07 2.93s5.21-1.06 7.069-2.93a10.059 10.059 0 0 0 2.931-7.07c0-2.63-1.07-5.21-2.931-7.07z" fill="#f36c00"/></svg>