<svg xmlns="http://www.w3.org/2000/svg" viewBox="0 0 512.002 512" width="512" height="512"><path d="M498.809 55.605L456.387 13.18c-17.543-17.543-46.094-17.543-63.637 0L256 149.93l-92.84-92.84c-1.469-1.473-3.219-2.606-5.242-3.403L20.375.992A15.001 15.001 0 0 0 1.004 20.367L53.699 157.91l.035.082a15.168 15.168 0 0 0 3.364 5.16l92.84 92.84L13.19 392.738c-17.586 17.586-17.59 46.051 0 63.637l42.422 42.426c17.543 17.543 46.094 17.547 63.64 0L256 362.055 392.75 498.8c17.543 17.543 46.094 17.547 63.637 0l42.425-42.422c17.586-17.59 17.59-46.05 0-63.64l-136.75-136.747 136.75-136.75c17.586-17.586 17.586-46.047-.003-63.637zM41.047 41.04l84.558 32.395-52.164 52.16zm56.992 436.55c-5.848 5.849-15.363 5.849-21.21 0l-42.427-42.425c-5.863-5.863-5.863-15.348 0-21.21l8.844-8.845 31.816 31.82c5.856 5.856 15.356 5.856 21.211 0 5.86-5.859 5.86-15.355 0-21.214l-31.816-31.817 21.211-21.214 10.61 10.609c5.855 5.855 15.35 5.855 21.21 0 5.86-5.86 5.86-15.355 0-21.215l-10.605-10.605 21.21-21.211 31.821 31.82c5.856 5.856 15.352 5.856 21.211 0 5.86-5.86 5.86-15.355 0-21.215l-31.82-31.816 21.843-21.848 63.641 63.64zm-9.121-325.046l21.21-21.211 282.286 282.281-21.21 21.215zm388.68 261.41c5.863 5.863 5.863 15.348 0 21.211l-42.422 42.426c-5.848 5.847-15.363 5.847-21.215 0l-21.547-21.55 63.637-63.638zm-42.758-42.762l-21.215 21.211-282.281-282.28 21.21-21.216zm42.758-273.16L340.852 234.777l-63.637-63.636 20.578-20.582 31.82 31.82c5.856 5.86 15.356 5.86 21.211 0 5.86-5.86 5.86-15.356 0-21.211l-31.816-31.82 21.21-21.211 10.606 10.605c5.86 5.856 15.356 5.856 21.215 0 5.856-5.86 5.856-15.355 0-21.215l-10.605-10.605 21.21-21.211 31.817 31.816c5.86 5.86 15.355 5.86 21.215 0 5.855-5.855 5.855-15.351 0-21.21L403.856 44.5l10.105-10.11c5.852-5.847 15.367-5.847 21.215 0l42.426 42.426c5.859 5.864 5.859 15.352-.004 21.215zm0 0" fill="#f36c00"/></svg>