<svg xmlns="http://www.w3.org/2000/svg" viewBox="0 0 480.108 480.108" width="512" height="512"><path d="M394.435 256.362a8.012 8.012 0 0 0-2.381-.362h-192a8.006 8.006 0 0 0-6.414 3.219 7.99 7.99 0 0 0-1.25 7.066l33.391 112a7.994 7.994 0 0 0 7.664 5.715h123.703a8.011 8.011 0 0 0 7.641-5.621l34.906-112a8 8 0 0 0-5.26-10.017zM351.265 368H239.406l-28.618-96h170.391l-29.914 96z" fill="#f36c00"/><path d="M440.054 248a8.001 8.001 0 0 0-7.508 5.234L378.476 400H216.054v16h40v17.474c-12.497 4.418-19.046 18.131-14.627 30.627 4.418 12.497 18.131 19.046 30.627 14.627 12.497-4.418 19.046-18.131 14.627-30.627a23.998 23.998 0 0 0-14.627-14.627V416h72v17.474c-12.497 4.418-19.046 18.131-14.627 30.627s18.131 19.046 30.627 14.627c12.497-4.418 19.046-18.131 14.627-30.627a23.998 23.998 0 0 0-14.627-14.627V416h24a8.001 8.001 0 0 0 7.508-5.234L445.632 264h34.422v-16h-40zm-176 216a8 8 0 1 1 8-8 8.008 8.008 0 0 1-8 8zm88 0a8 8 0 1 1 8-8 8.008 8.008 0 0 1-8 8z" fill="#f36c00"/><path fill="#f36c00" d="M248.054 296h96v16h-96zm8 32h80v16h-80zM237.71 146.344l-144-144a7.996 7.996 0 0 0-11.309-.003l-.003.003-80 80a7.996 7.996 0 0 0-.003 11.309l.003.003 144 144a7.995 7.995 0 0 0 5.656 2.344h80a7.998 7.998 0 0 0 8-7.996V152a8 8 0 0 0-2.344-5.656zM224.054 224h-68.688l-136-136 68.688-68.688 136 136V224zM409.718 70.461c-8.58-8.649-22.546-8.705-31.195-.125l-.125.125c-11.016 11.012-5.016 22.441-1.43 29.27 3.953 7.535 3.594 8.332 1.43 10.492a6.058 6.058 0 1 1-8.57-8.566l-11.313-11.312c-8.58 8.648-8.525 22.615.124 31.195 8.6 8.532 22.471 8.532 31.071 0 10.992-10.996 5-22.418 1.422-29.242-3.961-7.547-3.594-8.348-1.422-10.52a6.058 6.058 0 1 1 8.57 8.566l11.313 11.312c8.649-8.58 8.705-22.547.125-31.195zM98.968 386.344l11.313 11.312c7.73-7.668 7.779-20.151.111-27.881s-20.151-7.779-27.881-.111l-.113.113c-6.804 7.118-7.411 18.131-1.43 25.953 2.961 5.648 2.727 5.883 1.43 7.18a3.716 3.716 0 1 1-5.273-5.239l.015-.015-11.313-11.312c-7.701 7.687-7.712 20.161-.025 27.862a19.702 19.702 0 0 0 13.963 5.783 19.647 19.647 0 0 0 13.945-5.762c6.795-7.114 7.398-18.116 1.422-25.93-2.969-5.66-2.734-5.898-1.422-7.207a3.716 3.716 0 1 1 5.273 5.239l-.015.015z"/><path d="M477.713 58.346l-.003-.003-56-56a7.996 7.996 0 0 0-11.309-.002l-.003.003-104 104a8.003 8.003 0 0 0-2.344 5.656v56a7.998 7.998 0 0 0 7.996 8h56.004a7.995 7.995 0 0 0 5.656-2.344l104-104a7.998 7.998 0 0 0 .003-11.31zM364.742 160h-44.688v-44.688l96-96L460.742 64l-96 96zM152.058 320H96.054a7.995 7.995 0 0 0-5.656 2.344l-88 88a7.996 7.996 0 0 0-.003 11.309l.003.003 56 56a7.998 7.998 0 0 0 11.31.003l.003-.003 88-88a8.005 8.005 0 0 0 2.344-5.656v-56a8 8 0 0 0-7.997-8zm-8.004 60.687l-80 80L19.367 416l80-80h44.688v44.687zm44-204.687c-6.627 0-12 5.373-12 12 .007 6.624 5.376 11.993 12 12 6.627 0 12-5.373 12-12 0-6.628-5.372-12-12-12zm-26.452-25.764a26.686 26.686 0 0 0-4.697-31.205c-13.273-13.281-26.867-6.148-35.867-1.422-9.719 5.098-12.664 5.898-17.148 1.422-4.197-4.196-4.198-11-.002-15.198 4.196-4.197 11-4.198 15.198-.002l11.313-11.312a26.687 26.687 0 0 0-31.208-4.696l-13.48-13.48-11.313 11.313L87.88 99.138a26.689 26.689 0 0 0 4.698 31.206c13.289 13.301 26.898 6.156 35.898 1.434 9.688-5.102 12.633-5.902 17.117-1.434 4.196 4.196 4.196 10.999 0 15.195s-10.999 4.196-15.195 0l-11.313 11.313a26.385 26.385 0 0 0 31.204 4.696l12.108 12.108 11.312-11.312-12.107-12.108zM296.054 192h16v16h-16zm0 32h16v16h-16zm-136 32h16v16h-16zm0 32h16v16h-16z" fill="#f36c00"/></svg>