<svg xmlns="http://www.w3.org/2000/svg" width="512" height="512"><path d="M256 0C115.231 0 0 115.264 0 256v75c0 49.626 40.374 90 90 90h60V241H90.685C98.293 156.471 169.524 90 256 90c86.477 0 157.707 66.471 165.315 151H362v180h60v31h-90v-30h-90v90h90v-30h120v-66.148c34.92-12.383 60-45.741 60-84.852v-75C512 115.233 396.737 0 256 0zm46 482h-30v-30h30v30zM60 382.928C42.084 372.537 30 353.159 30 331s12.084-41.537 30-51.928v103.856zM120 271v120H90V271h30zm-59.747-24.941A90.068 90.068 0 0 0 30 263.98V256c0-56.668 20.969-108.527 55.549-148.237l21.452 21.452C78.75 162.222 62.43 202.927 60.253 246.059zM256 60c-47.271 0-92.155 16.921-127.864 47.923L106.703 86.49C146.549 51.353 198.824 30 256 30s109.451 21.353 149.297 56.49l-21.434 21.434C348.154 76.921 303.27 60 256 60zm166 331h-30V271h30v120zm30-8.072V279.072c17.916 10.391 30 29.768 30 51.928 0 22.159-12.084 41.537-30 51.928zm30-118.948a90.087 90.087 0 0 0-30.253-17.922c-2.177-43.131-18.497-83.837-46.748-116.844l21.452-21.452C461.031 147.473 482 199.332 482 256v7.98z" fill="#FFF"/></svg>