<svg xmlns="http://www.w3.org/2000/svg" width="512" height="512"><path d="M462 0H50C22.43 0 0 22.43 0 50v412c0 27.57 22.43 50 50 50h412c27.57 0 50-22.43 50-50V50c0-27.57-22.43-50-50-50zm30 462c0 16.542-13.458 30-30 30H50c-16.542 0-30-13.458-30-30V91.949c.33.033.665.051 1.004.051H492v370zm0-390H21.004c-.339 0-.674.018-1.004.051V50c0-16.542 13.458-30 30-30h412c16.542 0 30 13.458 30 30v22z" fill="#f36c00"/><path d="M448 36H222.065c-5.522 0-10 4.478-10 10s4.478 10 10 10H448c5.522 0 10-4.478 10-10s-4.478-10-10-10zm-336.931 2.93A10.067 10.067 0 0 0 104 36c-2.641 0-5.21 1.069-7.07 2.93S94 43.37 94 46s1.069 5.21 2.93 7.069C98.79 54.93 101.37 56 104 56s5.21-1.07 7.069-2.931C112.93 51.21 114 48.63 114 46s-1.07-5.21-2.931-7.07zm-40 0C69.21 37.069 66.63 36 64 36s-5.21 1.069-7.07 2.93S54 43.37 54 46s1.069 5.21 2.93 7.069C58.79 54.93 61.37 56 64 56s5.21-1.07 7.069-2.931C72.93 51.21 74 48.63 74 46s-1.07-5.21-2.931-7.07zm80 0C149.21 37.069 146.63 36 144 36s-5.21 1.069-7.07 2.93S134 43.37 134 46s1.069 5.21 2.93 7.069C138.79 54.93 141.37 56 144 56s5.21-1.07 7.069-2.931C152.93 51.21 154 48.63 154 46s-1.07-5.21-2.931-7.07zM239.667 114H199c-5.522 0-10 4.478-10 10s4.478 10 10 10h40.667a6.34 6.34 0 0 1 6.333 6.333v77.945l-16.969-22.205a25.5 25.5 0 0 0-21.966-9.993 25.52 25.52 0 0 0-20.499 12.733l-31.569 54.678-16.282-24.738a21.355 21.355 0 0 0-17.557-9.62c-7.04-.107-13.753 3.314-17.816 9.13L74 270.26V140.333A6.34 6.34 0 0 1 80.333 134H112c5.522 0 10-4.478 10-10s-4.478-10-10-10H80.333C65.813 114 54 125.813 54 140.333v159.334C54 314.188 65.813 326 80.333 326h159.334C254.188 326 266 314.188 266 299.667V140.333c0-14.52-11.812-26.333-26.333-26.333zM80.333 306a6.325 6.325 0 0 1-5.097-2.589l44.5-63.692c.103-.146.41-.587 1.12-.587h.024c.728.011 1.028.468 1.128.618L165.613 306h-85.28zM246 299.667a6.34 6.34 0 0 1-6.333 6.333h-50.109L167.3 272.183l36.587-63.37c1.346-2.331 3.572-2.717 4.467-2.774.895-.062 3.15.037 4.786 2.178l30.664 40.126a9.985 9.985 0 0 0 2.196 2.111v49.213z" fill="#f36c00"/><path d="M167.069 116.93C165.21 115.07 162.63 114 160 114s-5.21 1.069-7.07 2.93S150 121.37 150 124s1.069 5.21 2.93 7.069c1.86 1.861 4.44 2.931 7.07 2.931s5.21-1.07 7.069-2.931C168.93 129.21 170 126.63 170 124s-1.07-5.21-2.931-7.07zM256 394H64c-5.522 0-10 4.478-10 10s4.478 10 10 10h192c5.522 0 10-4.478 10-10s-4.478-10-10-10zm0-40H64c-5.522 0-10 4.478-10 10s4.478 10 10 10h192c5.522 0 10-4.478 10-10s-4.478-10-10-10zm-49.931 82.93C204.21 435.069 201.63 434 199 434s-5.21 1.069-7.07 2.93c-1.86 1.861-2.93 4.44-2.93 7.07s1.069 5.21 2.93 7.069c1.86 1.86 4.44 2.931 7.07 2.931s5.21-1.07 7.069-2.931C207.93 449.21 209 446.63 209 444s-1.07-5.21-2.931-7.07zM160 434H64c-5.522 0-10 4.478-10 10s4.478 10 10 10h96c5.522 0 10-4.478 10-10s-4.478-10-10-10zm276.333-320H327.667C315.72 114 306 123.72 306 135.667v108.666C306 256.28 315.72 266 327.667 266h108.666C448.28 266 458 256.28 458 244.333V135.667C458 123.72 448.28 114 436.333 114zM438 244.333a1.67 1.67 0 0 1-1.667 1.667H327.667a1.67 1.67 0 0 1-1.667-1.667V135.667a1.67 1.67 0 0 1 1.667-1.667h108.666a1.67 1.67 0 0 1 1.667 1.667v108.666zM436.333 306H327.667C315.72 306 306 315.72 306 327.667v108.666C306 448.28 315.72 458 327.667 458h108.666C448.28 458 458 448.28 458 436.333V327.667C458 315.72 448.28 306 436.333 306zM438 436.333a1.67 1.67 0 0 1-1.667 1.667H327.667a1.67 1.67 0 0 1-1.667-1.667V327.667a1.67 1.67 0 0 1 1.667-1.667h108.666a1.67 1.67 0 0 1 1.667 1.667v108.666z" fill="#f36c00"/><path d="M405.34 366.244l-24.499-14.131c-5.696-3.287-12.497-3.284-18.191.005-5.694 3.289-9.094 9.179-9.094 15.755v28.254c0 6.575 3.398 12.464 9.091 15.753 2.85 1.647 5.977 2.471 9.104 2.471 3.12 0 6.24-.82 9.085-2.46h.001l24.502-14.124c5.701-3.287 9.105-9.179 9.106-15.761-.001-6.582-3.404-12.475-9.105-15.762zm-31.784 26.758V371l19.079 11.004-19.079 10.998zm31.784-218.758l-24.499-14.131c-5.696-3.286-12.497-3.285-18.191.005-5.694 3.289-9.094 9.179-9.094 15.755v28.254c0 6.575 3.398 12.464 9.091 15.753 2.85 1.647 5.976 2.471 9.103 2.471 3.12 0 6.241-.82 9.087-2.46l24.502-14.124c5.701-3.287 9.105-9.179 9.106-15.761-.001-6.582-3.404-12.475-9.105-15.762zm-31.784 26.758V179l19.079 11.004-19.079 10.998z" fill="#f36c00"/></svg>