<svg xmlns="http://www.w3.org/2000/svg" viewBox="0 -16 512 512" width="512" height="512"><path d="M467 0H45C20.187 0 0 20.188 0 45v300c0 24.813 20.188 45 45 45h130.188l-20 60H106c-8.285 0-15 6.715-15 15s6.715 15 15 15h361c24.813 0 45-20.188 45-45V45c0-24.813-20.188-45-45-45zM45 360c-8.27 0-15-6.73-15-15v-15h272v30zm141.813 90l20-60H302v45c0 5.258.914 10.305 2.578 15zM482 435c0 8.27-6.73 15-15 15H347c-8.27 0-15-6.73-15-15v-15h150zm0-45H332V240h150zm0-180H332v-15c0-8.27 6.73-15 15-15h120c8.27 0 15 6.73 15 15zm0-57.422A44.814 44.814 0 0 0 467 150H347c-24.813 0-45 20.188-45 45v105H30V45c0-8.27 6.73-15 15-15h422c8.27 0 15 6.73 15 15zm0 0" fill="#f36c00"/></svg>