<svg xmlns="http://www.w3.org/2000/svg" viewBox="0 0 512 511" width="512" height="512"><path d="M22.02 490.55a.03.03 0 0 0 .015.016c.012.012.024.02.035.032 29.258 29.168 76.614 29.28 106.028-.133l127.004-128.246c2.941 2.941 20.82 20.73 128.867 128.297 29.312 29.308 76.75 29.312 106.062 0l.02-.02c.004-.004.008-.004.008-.008.007-.008.015-.02.023-.027 29.191-29.246 29.176-76.785-.07-106.031L340.105 235.195l69.793-68.699h36.282a15.004 15.004 0 0 0 13.18-7.844l50.82-93.57a14.998 14.998 0 0 0-2.575-17.766L465.18 4.895a14.996 14.996 0 0 0-17.766-2.575l-93.57 50.82a15 15 0 0 0-7.84 13.18v36.168l-90.805 89.934-51.308-51.64c13.14-37.009 4.93-79.962-24.637-109.528C147.84-.16 99.812-8.41 59.742 10.734a15.001 15.001 0 0 0-4.14 24.14l49.41 49.411L83.8 105.496l-49.41-49.41a15.001 15.001 0 0 0-24.141 4.14c-19.14 40.07-10.895 88.098 20.52 119.516 29.277 29.278 72.097 37.895 109.46 24.656l30.18 30.375c-4.902 4.946-143.226 144.434-148.426 149.68-29.308 29.309-29.316 76.75 0 106.063zm84.812-21.245c-14.11 14.11-34.867 16.668-51.305 8.761l114.657-115.773 21.414 21.418zm298.324-.024l-86.375-85.992 21.074-21.074 116.493 115.89c-16.72 7.942-37.356 5.008-51.192-8.824zm63.664-63.613c13.84 13.836 16.75 34.52 8.762 51.25L361.07 341.004l21.352-21.352zm-107.66-107.18c-6.89 6.887-56.937 56.938-63.637 63.637l-42.52-42.332 63.724-63.55zm14.844-223.242l75.883-41.219 26.586 26.582-41.22 75.887h-27.288l-33.961-33.96zm-15.05 54.66c7.46 7.461 13.874 13.88 21.503 21.504-32.539 31.938-77.113 75.707-85.02 83.524l-21.093-21.23zM51.98 158.527c-16.96-16.96-24.468-40.707-21.222-63.644l42.437 42.433c5.852 5.856 15.356 5.856 21.211 0l42.426-42.425c5.856-5.856 5.856-15.356 0-21.211L94.398 31.246c22.938-3.254 46.68 4.258 63.645 21.219 29.242 29.242 29.242 76.824 0 106.062-29.242 29.243-76.82 29.243-106.063 0zm115.86 31.098c3.98-2.98 7.8-6.27 11.418-9.883a104.89 104.89 0 0 0 9.805-11.32c46.605 46.902 84.761 85.32 87.164 87.723l-21.211 21.214zm23.547 66.598l42.383 42.382-10.606 10.606c-5.867 5.863-5.855 15.383.02 21.234l10.66 10.61-21.133 21.34-63.57-63.567zM43.238 405.62l84.778-85.492 20.953 20.953-114.614 115.73c-7.777-16.324-5.292-37.011 8.883-51.19zm0 0" fill="#f36c00"/></svg>