<svg xmlns="http://www.w3.org/2000/svg" viewBox="-31 0 512 512" width="512" height="512"><path d="M225 122c-90.98 0-165 74.055-165 165 0 90.98 74.055 165 165 165 91.227 0 165-74.223 165-165 0-90.98-74.055-165-165-165zm120 179.988h14.16c-2.887 26-13.183 49.805-28.73 69.227l-9.97-9.969c-5.858-5.855-15.355-5.855-21.214 0-5.86 5.86-5.855 15.356 0 21.215l9.969 9.969C289.793 407.977 266 418.273 240 421.16V407c0-8.285-6.715-15-15-15s-15 6.715-15 15v14.16c-26-2.887-49.793-13.183-69.215-28.73l9.969-9.97c5.855-5.858 5.86-15.355 0-21.214-5.856-5.855-15.356-5.855-21.215 0l-9.969 9.973C104.023 351.793 93.727 328 90.84 302H105c8.285 0 15-6.715 15-15s-6.715-15-15-15H90.84c2.887-26 13.183-49.793 28.73-69.215l9.97 9.969c5.858 5.86 15.355 5.855 21.214 0 5.86-5.86 5.855-15.356 0-21.215l-9.969-9.969C160.207 166.023 184 155.727 210 152.84V167c0 8.285 6.715 15 15 15s15-6.715 15-15v-14.16c26 2.887 49.793 13.183 69.215 28.73l-9.969 9.97c-5.855 5.858-5.86 15.355 0 21.214 5.856 5.855 15.356 5.855 21.215 0l9.969-9.973C345.977 222.207 356.273 246 359.16 272H345c-8.285 0-15 6.715-15 15s6.715 14.988 15 14.988zm0 0" fill="#f36c00"/><path d="M240 280.785V227c0-8.285-6.715-15-15-15s-15 6.715-15 15v60c0 3.977 1.578 7.793 4.395 10.605l30 30c5.855 5.86 15.355 5.86 21.21 0 5.86-5.859 5.86-15.355 0-21.21zm0 0" fill="#f36c00"/><path d="M415.605 117.605c5.86-5.859 5.86-15.355 0-21.21-5.855-5.86-15.355-5.86-21.21 0l-21.258 21.253C343.504 91.656 308.12 74.18 270 66.48V15c0-8.285-6.715-15-15-15h-60c-8.285 0-15 6.715-15 15v51.48c-37.629 7.598-72.594 24.715-101.988 50.157l-22.95-20.762c-6.144-5.559-15.628-5.078-21.187 1.063-5.559 6.144-5.082 15.628 1.063 21.187l21.699 19.629C20.023 178.94 0 231.43 0 287c0 124.352 100.633 225 225 225 124.352 0 225-100.633 225-225 0-55.07-19.664-107.113-55.652-148.137zM210 30h30v32.504c-4.973-.324-9.973-.504-15-.504s-10.027.18-15 .504zm210 257c0 107.523-87.477 195-195 195S30 394.523 30 287 117.477 92 225 92s195 87.477 195 195zm0 0" fill="#f36c00"/></svg>