<svg xmlns="http://www.w3.org/2000/svg" width="512" height="512"><path d="M256.948 353.997c-5.523 0-10 4.478-10 10s4.477 10 10 10h.095c5.523 0 9.952-4.478 9.952-10s-4.524-10-10.047-10z" fill="#f36c00"/><path d="M469.999 40h-12V10c0-5.523-4.477-10-10-10H368c-5.523 0-10 4.477-10 10v304.001h-47.957V168.658l17.679-48.216a10 10 0 0 0-.755-8.489L296.599 60H325.5c5.523 0 10-4.477 10-10s-4.477-10-10-10h-40.592L264.423 4.955c-1.808-3.093-5.133-5.018-8.715-4.953a10 10 0 0 0-8.633 5.094l-60.227 106.999a9.998 9.998 0 0 0-.781 8.042l15.977 48.356v145.509h-39.771V107a10 10 0 0 0-.898-4.142L141.874 60H187c5.523 0 10-4.477 10-10s-4.477-10-10-10h-52.667c-.512 0-1.011.051-1.503.125L117.24 5.859a10 10 0 0 0-18.204 0L83.501 40h-41.5c-23.159 0-42 18.841-42 42v281.997c0 27.57 22.43 50 50 50H202V452h-14c-23.159 0-42 18.841-42 42v8c0 5.522 4.477 10 10 10h199.998c5.523 0 10-4.478 10-10v-8c0-23.159-18.841-42-42-42h-14v-38.004h151.999c27.57 0 50-22.43 50-50V82c.001-23.159-18.841-42-41.998-42zM378 299.998h21.25c5.523 0 10-4.478 10-10s-4.477-10-10-10H378v-20h8.951c5.523 0 10-4.477 10-10s-4.477-10-10-10H378v-20h21.25c5.523 0 10-4.477 10-10s-4.477-10-10-10H378v-20h8.951c5.523 0 10-4.477 10-10s-4.477-10-10-10H378v-20h21.25c5.523 0 10-4.477 10-10s-4.477-10-10-10H378v-20h8.951c5.523 0 10-4.477 10-10s-4.477-10-10-10H378V60h21.25c5.523 0 10-4.477 10-10s-4.477-10-10-10H378V20h59.999v294.001H378v-14.003zM246 47.779v35.207c0 5.523 4.477 10 10 10s10-4.477 10-10V47.285l41.323 70.695-14.264 38.904h-73.787l-12.829-38.828L246 47.779zm17.667 183.885c-5.523 0-10 4.477-10 10v72.337h-31.623V176.883h67.999v137.119h-16.377v-72.337c.001-5.524-4.476-10.001-9.999-10.001zM142.274 116.999v197.002H74.002V116.999h68.272zm-34.136-82.853L119.447 59H96.829l11.309-24.854zM87.728 79h40.819l8.191 18H79.539l8.189-18zm-67.726 3c0-12.131 9.869-22 22-22h32.399L54.9 102.858a10 10 0 0 0-.898 4.142v207.002h-34V82zM324 472c11.457 0 20.896 8.803 21.91 20H166.092c1.013-11.197 10.453-20 21.91-20H324zm-102-20v-38.004h68V452h-68zm269.998-88.003c0 16.542-13.458 30-30 30H50.003c-16.542 0-30-13.458-30-30v-29.996h471.996v29.996zm0-49.995h-34V60h12c12.131 0 22 9.869 22 22v232.002z" fill="#f36c00"/><path d="M100.335 188.499c-5.523 0-10 4.477-10 10v73c0 5.522 4.477 10 10 10s10-4.478 10-10v-73c0-5.523-4.477-10-10-10zm7.066-36.07a10.058 10.058 0 0 0-7.07-2.93c-2.63 0-5.21 1.07-7.07 2.93s-2.93 4.44-2.93 7.07 1.07 5.21 2.93 7.07 4.44 2.93 7.07 2.93c2.64 0 5.21-1.07 7.07-2.93 1.87-1.86 2.93-4.44 2.93-7.07 0-2.64-1.06-5.21-2.93-7.07zm155.67-42.499a10.076 10.076 0 0 0-7.07-2.93c-2.63 0-5.21 1.07-7.07 2.93s-2.93 4.44-2.93 7.07 1.07 5.21 2.93 7.07 4.439 2.93 7.07 2.93c2.63 0 5.21-1.07 7.07-2.93s2.93-4.44 2.93-7.07c0-2.631-1.07-5.21-2.93-7.07z" fill="#f36c00"/></svg>