<svg xmlns="http://www.w3.org/2000/svg" viewBox="0 -16 512 512" width="512" height="512"><path d="M391 120h-6.242C364.672 49.227 299.953 0 226 0 146.613 0 78.43 56.715 63.594 134.02 25.574 154.316 0 195.066 0 240c0 66.168 53.832 120 120 120h91v105c0 8.285 6.715 15 15 15h60c8.285 0 15-6.715 15-15V360h90c66.719 0 121-53.832 121-120s-54.281-120-121-120zM286 330c-8.285 0-15 6.715-15 15v105h-30V345c0-8.285-6.715-15-15-15h-30l60-80 60 80zm105 0h-37.5L286 240h30c8.285 0 15-6.715 15-15s-6.715-15-15-15H196c-8.285 0-15 6.715-15 15s6.715 15 15 15h30l-67.5 90H120c-49.625 0-90-40.375-90-90 0-49.402 40.617-90 90-90 8.285 0 15-6.715 15-15s-6.715-15-15-15c-7.566 0-15.023.703-22.305 2.066C115.915 68.18 167.305 30 226 30c59.594 0 111.96 39.45 129.094 95.469a118.751 118.751 0 0 0-10.809 3.969c-7.629 3.226-11.2 12.027-7.972 19.656 3.234 7.64 12.042 11.195 19.66 7.972C367.059 152.38 378.843 150 391 150c50.18 0 91 40.375 91 90s-40.82 90-91 90zm0 0" fill="#f36c00"/></svg>