<svg height="512pt" viewBox="0 -46 512 512" width="512pt" xmlns="http://www.w3.org/2000/svg"><path d="m512 195c0-24.8125-20.1875-45-45-45h-76v-75c0-41.355469-33.644531-75-75-75-8.285156 0-15 6.714844-15 15v9.367188c0 37.609374-13.703125 73.863281-38.59375 102.085937-13.191406 14.964844-32.75 23.546875-53.652344 23.546875-6.765625 0-51.554687 0-193.753906 0-8.285156 0-15 6.714844-15 15v210c0 8.285156 6.714844 15 15 15h169.484375c16.238281 0 32.410156 2.199219 48.0625 6.539062l52.480469 14.546876c21.335937 5.917968 43.382812 8.914062 65.523437 8.914062h56.449219c24.8125 0 45-20.1875 45-45 0-5.855469-1.136719-11.449219-3.179688-16.585938 19.09375-5.203124 33.179688-22.691406 33.179688-43.414062 0-5.851562-1.121094-11.445312-3.164062-16.578125 19.089843-5.210937 33.164062-22.703125 33.164062-43.421875 0-11.515625-4.347656-22.03125-11.484375-30 7.136719-7.96875 11.484375-18.484375 11.484375-30zm-482 165v-180h121v180c-4.070312 0-118.734375 0-121 0zm377-120h60c8.269531 0 15 6.730469 15 15s-6.730469 15-15 15h-60c-8.285156 0-15 6.714844-15 15s6.714844 15 15 15h30c8.269531 0 15 6.730469 15 15s-6.730469 15-15 15h-30c-8.285156 0-15 6.714844-15 15s6.714844 15 15 15c8.269531 0 15 6.730469 15 15s-6.730469 15-15 15h-56.449219c-19.433593 0-38.78125-2.632812-57.507812-7.824219l-52.484375-14.546875c-18.257813-5.0625-37.125-7.628906-56.074219-7.628906h-3.484375v-180.199219h27.753906c29.511719 0 57.269532-12.085937 76.15625-33.503906 27.921875-31.667969 44.058594-71.800781 45.910156-113.789063 17.554688 6.140626 30.179688 22.871094 30.179688 42.492188v75h-15c-8.285156 0-15 6.714844-15 15s6.714844 15 15 15h121c8.269531 0 15 6.730469 15 15s-6.730469 15-15 15h-60c-8.285156 0-15 6.714844-15 15s6.714844 15 15 15zm0 0"/><path d="m121 315c0 8.285156-6.714844 15-15 15s-15-6.714844-15-15 6.714844-15 15-15 15 6.714844 15 15zm0 0"/></svg>