<?xml version="1.0" encoding="iso-8859-1"?>
<!-- Generator: Adobe Illustrator 19.0.0, SVG Export Plug-In . SVG Version: 6.00 Build 0)  -->
<svg xmlns="http://www.w3.org/2000/svg" xmlns:xlink="http://www.w3.org/1999/xlink" version="1.1" id="Capa_1" x="0px" y="0px" viewBox="0 0 512 512" style="enable-background:new 0 0 512 512;" xml:space="preserve" width="512px" height="512px">
<g>
	<g>
		<path d="M256,0C115.231,0,0,115.264,0,256v74.998V331c0,49.626,40.374,90,90,90h60V241H90.685C98.293,156.471,169.524,90,256,90    c86.477,0,157.707,66.471,165.315,151H362v180h60v31h-90v-30h-90v90h90v-30h120v-66.148c34.92-12.383,60-45.741,60-84.852    c0-0.001,0-0.001,0-0.002V256C512,115.233,396.737,0,256,0z M302,482h-30v-30h30V482z M60,382.928    C42.084,372.537,30,353.159,30,331s12.084-41.537,30-51.928V382.928z M120,271v120H90V271H120z M60.253,246.059    C48.979,250.018,38.725,256.161,30,263.98V256c0-56.668,20.969-108.527,55.549-148.237l21.452,21.452    C78.75,162.222,62.43,202.927,60.253,246.059z M256,60c-47.271,0-92.155,16.921-127.864,47.923L106.703,86.49    C146.549,51.353,198.824,30,256,30c57.176,0,109.451,21.353,149.297,56.49l-21.434,21.434C348.154,76.921,303.27,60,256,60z     M422,391h-30V271h30V391z M452,382.928V279.072c17.916,10.391,30,29.768,30,51.928C482,353.159,469.916,372.537,452,382.928z     M482,263.98c-8.725-7.819-18.979-13.962-30.253-17.922c-2.177-43.131-18.497-83.837-46.748-116.844l21.452-21.452    C461.031,147.473,482,199.332,482,256V263.98z" fill="#FFFFFF"/>
	</g>
</g>
<g>
</g>
<g>
</g>
<g>
</g>
<g>
</g>
<g>
</g>
<g>
</g>
<g>
</g>
<g>
</g>
<g>
</g>
<g>
</g>
<g>
</g>
<g>
</g>
<g>
</g>
<g>
</g>
<g>
</g>
</svg>
